<?xml version="1.0" encoding="UTF-8" ?>
<!DOCTYPE svg PUBLIC "-//W3C//DTD SVG 1.1//EN" "http://www.w3.org/Graphics/SVG/1.1/DTD/svg11.dtd">
<svg width="26pt" height="26pt" viewBox="0 0 26 26" version="1.1" xmlns="http://www.w3.org/2000/svg">
<g id="#669ea0ff">
<path fill="#669ea0" opacity="1.00" d=" M 3.62 4.43 C 3.45 2.46 4.56 0.09 6.89 0.31 C 8.99 1.78 11.22 3.02 13.88 2.63 C 15.18 1.64 16.56 0.76 18.00 0.01 C 19.67 1.08 20.87 2.56 20.54 4.65 C 21.14 4.72 22.36 4.86 22.97 4.94 C 22.98 6.27 22.98 7.61 22.98 8.95 C 15.62 8.99 8.26 9.07 0.91 8.91 C 0.86 6.76 0.94 4.50 3.62 4.43 M 5.38 2.25 C 3.55 5.23 8.44 4.58 10.17 4.85 C 8.90 3.56 7.53 1.26 5.38 2.25 M 14.00 4.87 C 15.91 4.53 20.34 5.34 18.81 2.06 C 16.63 1.48 15.29 3.52 14.00 4.87 Z" />
<path fill="#669ea0" opacity="1.00" d=" M 2.56 22.35 C 2.44 18.44 2.49 14.52 2.41 10.60 C 5.52 10.53 8.63 10.53 11.73 10.59 C 11.60 14.57 11.60 18.56 11.74 22.54 C 8.68 22.65 5.61 22.65 2.56 22.35 Z" />
<path fill="#669ea0" opacity="1.00" d=" M 12.53 10.61 C 15.55 10.53 18.58 10.53 21.61 10.59 C 21.53 14.48 21.49 18.37 21.52 22.27 C 18.54 22.70 15.52 22.65 12.52 22.53 C 12.63 18.56 12.63 14.58 12.53 10.61 Z" />
</g>
</svg>
