<?xml version="1.0" encoding="UTF-8" ?>
<!DOCTYPE svg PUBLIC "-//W3C//DTD SVG 1.1//EN" "http://www.w3.org/Graphics/SVG/1.1/DTD/svg11.dtd">
<svg width="26pt" height="26pt" viewBox="0 0 26 26" version="1.1" xmlns="http://www.w3.org/2000/svg">
<g id="#669ea0ff">
<path fill="#669ea0" opacity="1.00" d=" M 8.40 1.63 C 15.16 -1.00 23.32 4.70 22.98 11.97 C 23.29 18.30 17.11 23.84 10.85 22.91 C 4.63 22.51 -0.18 15.95 1.23 9.89 C 1.91 6.12 4.81 2.89 8.40 1.63 M 11.01 5.73 C 11.05 8.08 11.04 10.42 11.01 12.76 C 13.29 14.45 14.86 18.49 18.23 17.57 C 16.52 15.73 14.84 13.86 12.98 12.16 C 13.03 10.00 13.01 7.85 13.00 5.70 C 12.50 5.71 11.51 5.73 11.01 5.73 Z" />
</g>
</svg>
