<?xml version="1.0" encoding="UTF-8" ?>
<!DOCTYPE svg PUBLIC "-//W3C//DTD SVG 1.1//EN" "http://www.w3.org/Graphics/SVG/1.1/DTD/svg11.dtd">
<svg width="550pt" height="550pt" viewBox="0 0 550 550" version="1.1" xmlns="http://www.w3.org/2000/svg">
<g id="#2d8081ff">
<path fill="#2d8081" opacity="1.00" d=" M 66.66 54.01 C 66.36 47.01 73.05 40.92 79.98 41.60 C 103.64 41.65 127.31 41.59 150.97 41.63 C 155.34 41.41 159.00 44.17 161.95 47.08 C 174.11 59.27 186.37 71.37 198.25 83.83 C 202.62 87.42 206.01 92.02 210.29 95.70 C 213.70 98.65 216.34 102.35 219.79 105.25 C 223.07 107.97 225.59 111.45 228.75 114.30 C 233.56 118.46 237.53 123.48 242.22 127.78 C 246.71 132.63 251.89 136.78 256.21 141.79 C 259.23 145.12 263.34 147.61 265.20 151.86 C 268.23 157.93 264.42 166.06 258.01 168.00 C 253.82 169.04 248.75 168.65 245.79 165.16 C 212.87 132.12 179.80 99.23 146.91 66.16 C 140.33 64.77 133.59 65.60 126.95 65.92 C 120.67 65.26 114.34 65.25 108.07 65.92 C 102.40 65.55 96.72 65.28 91.04 65.45 C 91.05 83.58 91.01 101.71 91.06 119.85 C 117.33 146.27 143.63 172.68 169.94 199.07 C 176.90 206.76 184.53 213.82 191.62 221.38 C 196.97 227.27 193.59 238.02 186.00 240.06 C 181.82 241.00 176.75 240.75 173.80 237.23 C 141.07 204.29 108.31 171.39 75.54 138.49 C 72.74 135.60 69.53 132.98 67.62 129.38 C 66.66 127.41 66.71 125.17 66.64 123.04 C 66.69 100.03 66.63 77.02 66.66 54.01 Z" />
<path fill="#2d8081" opacity="1.00" d=" M 389.08 46.03 C 391.71 43.44 395.22 41.55 398.99 41.63 C 423.00 41.61 447.01 41.61 471.02 41.63 C 477.76 41.36 483.64 47.30 483.33 54.03 C 483.35 77.34 483.35 100.65 483.34 123.95 C 483.44 127.75 481.60 131.33 478.97 133.97 C 446.17 166.84 413.42 199.76 380.66 232.68 C 369.02 244.04 358.03 256.04 346.43 267.45 C 328.46 285.49 310.46 303.52 292.51 321.58 C 290.33 323.89 287.13 325.00 284.03 325.24 C 276.80 325.51 270.37 318.17 271.90 311.01 C 272.38 306.90 275.74 304.17 278.48 301.43 C 300.12 279.75 321.73 258.02 343.35 236.31 C 351.60 227.89 360.17 219.78 368.10 211.05 C 398.40 180.66 428.68 150.26 458.97 119.86 C 458.94 101.71 458.99 83.56 458.95 65.41 C 454.60 65.18 450.29 66.02 445.96 65.88 C 440.64 65.29 435.26 65.20 429.94 65.81 C 425.97 66.25 422.03 65.26 418.05 65.40 C 413.21 65.21 408.42 66.33 403.58 65.79 C 381.86 87.33 360.34 109.06 338.69 130.66 C 335.58 133.69 332.64 137.62 328.02 138.19 C 322.16 139.27 315.87 135.31 314.47 129.50 C 313.00 125.61 314.41 121.17 317.29 118.32 C 327.85 107.53 338.84 97.16 349.07 86.06 C 362.43 72.74 375.76 59.39 389.08 46.03 Z" />
<path fill="#2d8081" opacity="1.00" d=" M 297.17 139.29 C 300.27 138.25 303.74 138.25 306.84 139.30 C 311.78 141.84 315.64 147.82 313.58 153.43 C 312.39 158.59 307.33 162.50 302.04 162.43 C 294.70 162.96 288.36 155.08 290.06 148.02 C 290.96 144.25 293.79 141.07 297.17 139.29 Z" />
<path fill="#2d8081" opacity="1.00" d=" M 273.39 163.51 C 279.49 160.80 287.44 164.36 289.28 170.82 C 291.00 175.04 289.41 180.09 286.20 183.16 C 245.85 223.49 205.55 263.88 165.17 304.19 C 159.56 309.96 148.75 307.44 146.03 299.96 C 143.89 295.57 145.34 290.07 148.82 286.80 C 189.02 246.65 229.18 206.45 269.36 166.28 C 270.54 165.15 271.84 164.10 273.39 163.51 Z" />
<path fill="#2d8081" opacity="1.00" d=" M 365.22 260.29 C 369.52 258.80 374.56 259.97 377.69 263.31 C 386.86 272.48 396.05 281.64 405.20 290.83 C 410.87 296.03 409.04 306.86 401.90 309.85 C 397.52 312.32 391.72 311.32 388.30 307.69 C 378.97 298.35 369.62 289.02 360.31 279.66 C 354.47 273.86 357.48 262.76 365.22 260.29 Z" />
<path fill="#2d8081" opacity="1.00" d=" M 107.50 289.71 C 112.17 285.64 119.48 285.84 123.97 290.07 C 131.23 297.12 138.27 304.39 145.49 311.49 C 149.08 314.87 151.47 320.31 149.33 325.11 C 147.16 332.51 137.12 335.84 131.04 331.01 C 126.52 326.97 122.42 322.49 118.12 318.22 C 116.85 322.94 117.95 327.92 119.83 332.32 C 122.00 337.47 128.16 340.78 127.48 347.03 C 127.93 351.80 124.57 355.68 120.64 357.85 C 124.48 357.28 128.81 357.30 131.91 359.98 C 137.42 364.15 137.88 373.16 132.90 377.93 C 113.18 397.85 93.24 417.57 73.49 437.46 C 70.15 440.98 64.66 443.13 60.00 441.06 C 52.20 438.91 49.00 427.66 54.88 421.93 C 74.35 402.36 93.93 382.90 113.40 363.35 C 114.85 361.90 116.35 360.51 117.90 359.18 C 113.53 359.63 109.13 358.09 106.31 354.67 C 97.90 346.11 93.13 333.99 93.56 321.99 C 93.60 309.93 98.78 298.02 107.50 289.71 Z" />
<path fill="#2d8081" opacity="1.00" d=" M 425.99 290.05 C 429.22 286.63 434.50 285.86 438.82 287.36 C 442.99 289.15 445.63 293.05 448.30 296.53 C 459.96 312.80 459.04 336.73 446.11 352.03 C 443.40 355.14 440.35 358.58 436.01 359.08 C 430.73 359.90 425.71 356.38 423.33 351.87 C 421.79 347.43 422.26 342.03 425.72 338.60 C 430.83 333.31 433.62 325.49 431.88 318.22 C 402.36 347.81 372.84 377.40 343.20 406.87 C 349.55 407.95 356.54 406.70 361.52 402.44 C 364.28 400.12 367.17 397.35 371.06 397.53 C 375.87 396.96 380.87 399.59 382.84 404.06 C 385.01 407.99 384.57 413.16 381.63 416.58 C 373.10 426.43 359.89 431.72 346.96 431.40 C 337.66 431.47 328.62 427.99 320.99 422.84 C 316.95 419.48 311.92 415.81 311.70 410.05 C 311.30 406.43 313.06 403.05 315.52 400.54 C 319.66 396.30 323.92 392.17 328.09 387.96 C 325.39 387.25 322.33 386.91 320.40 384.66 C 310.05 374.32 299.83 363.85 289.45 353.54 C 286.68 351.05 284.46 347.81 283.89 344.07 C 283.20 336.92 289.91 330.16 297.07 330.89 C 299.78 331.37 302.57 332.30 304.49 334.38 C 313.98 343.94 323.47 353.51 332.99 363.05 C 336.58 366.58 340.97 370.51 340.34 376.09 C 349.01 366.55 358.50 357.79 367.49 348.55 C 386.99 329.05 406.49 309.54 425.99 290.05 Z" />
<path fill="#2d8081" opacity="1.00" d=" M 255.19 326.23 C 258.00 325.28 261.10 325.30 263.96 326.05 C 271.47 328.55 274.68 339.15 269.07 345.05 C 258.65 355.63 248.12 366.12 237.63 376.64 C 233.02 381.40 224.46 380.67 220.39 375.58 C 216.30 370.99 216.68 363.30 221.12 359.07 C 230.50 349.48 240.08 340.09 249.48 330.52 C 251.15 328.83 252.90 327.06 255.19 326.23 Z" />
<path fill="#2d8081" opacity="1.00" d=" M 155.97 334.90 C 160.52 332.18 166.62 332.90 170.47 336.52 C 191.01 356.98 211.46 377.54 232.01 398.00 C 234.79 400.79 238.03 403.86 238.25 408.06 C 238.79 412.60 236.35 417.04 232.80 419.75 C 221.51 430.11 204.79 433.94 190.06 429.90 C 181.60 427.46 173.52 422.91 167.92 416.02 C 165.86 413.44 165.70 410.03 165.84 406.87 C 162.92 410.60 159.34 413.72 156.06 417.10 C 139.98 433.13 123.97 449.23 107.89 465.25 C 111.16 471.60 113.35 479.08 111.39 486.18 C 109.54 495.70 102.48 504.01 93.43 507.45 C 85.38 510.73 75.89 509.91 68.37 505.64 C 64.39 503.41 61.59 499.72 58.20 496.76 C 54.61 493.68 51.81 489.82 48.21 486.75 C 44.59 483.70 41.81 479.80 38.19 476.74 C 34.75 473.85 32.11 470.16 28.72 467.22 C 23.93 462.94 19.21 458.06 17.19 451.81 C 13.53 441.68 15.91 429.34 23.79 421.82 C 26.29 419.10 29.31 416.66 33.07 416.06 C 41.56 414.32 49.90 424.15 46.18 432.16 C 45.10 436.34 40.10 438.02 39.49 442.36 C 40.11 444.79 41.93 446.63 43.65 448.36 C 55.40 459.95 66.95 471.74 78.71 483.31 C 81.42 486.33 87.43 485.31 87.76 480.85 C 87.98 475.52 81.34 473.66 80.05 468.92 C 78.83 464.48 79.49 459.23 83.01 456.00 C 104.52 434.53 125.99 413.00 147.52 391.55 C 152.51 386.89 161.52 387.82 165.33 393.54 C 167.67 396.58 167.55 400.58 167.26 404.21 C 169.04 399.57 174.13 396.89 178.99 397.54 C 184.49 397.47 187.65 402.61 192.20 404.80 C 196.62 407.42 201.91 406.91 206.82 406.90 C 189.09 389.36 171.57 371.61 153.86 354.06 C 151.31 351.77 150.04 348.35 149.87 344.99 C 149.95 340.83 152.66 337.19 155.97 334.90 Z" />
<path fill="#2d8081" opacity="1.00" d=" M 423.23 359.33 C 427.51 357.87 432.57 359.03 435.64 362.40 C 453.84 380.62 472.08 398.79 490.25 417.04 C 496.60 413.91 503.97 411.89 511.01 413.66 C 521.67 415.50 530.88 424.01 533.53 434.50 C 535.51 441.87 534.41 449.98 530.67 456.61 C 526.65 463.17 520.14 467.58 515.27 473.43 C 508.68 480.80 500.92 487.00 494.35 494.38 C 490.97 497.94 487.39 501.33 483.54 504.38 C 472.22 512.52 455.02 510.66 445.82 500.12 C 440.55 494.94 441.62 484.90 448.18 481.27 C 453.07 478.19 459.45 479.75 463.47 483.55 C 465.80 485.93 469.76 485.22 471.82 482.85 C 483.52 471.22 495.12 459.48 506.85 447.88 C 508.46 446.26 510.18 444.42 510.30 442.01 C 510.29 438.66 506.51 436.07 503.42 437.57 C 500.04 439.32 498.16 443.10 494.57 444.55 C 490.04 446.46 484.45 445.49 481.03 441.88 C 460.48 421.50 440.11 400.93 419.58 380.51 C 417.02 378.00 415.01 374.67 414.87 371.02 C 415.14 366.01 418.33 360.95 423.23 359.33 Z" />
<path fill="#2d8081" opacity="1.00" d=" M 393.29 390.25 C 397.49 388.94 401.94 391.09 404.96 393.96 C 424.95 414.00 444.99 433.99 464.99 454.01 C 469.73 458.59 469.44 467.12 464.39 471.37 C 459.80 475.76 451.69 475.38 447.48 470.64 C 427.18 450.23 406.71 429.98 386.47 409.52 C 380.63 403.11 384.97 391.87 393.29 390.25 Z" />
</g>
</svg>
