<?xml version="1.0" encoding="UTF-8" ?>
<!DOCTYPE svg PUBLIC "-//W3C//DTD SVG 1.1//EN" "http://www.w3.org/Graphics/SVG/1.1/DTD/svg11.dtd">
<svg width="26pt" height="26pt" viewBox="0 0 26 26" version="1.1" xmlns="http://www.w3.org/2000/svg">
<g id="#669ea0ff">
<path fill="#669ea0" opacity="1.00" d=" M 1.33 15.13 C 5.63 11.04 9.61 6.61 14.04 2.66 C 14.00 6.79 13.99 10.91 14.00 15.03 C 9.77 15.09 5.55 15.05 1.33 15.13 Z" />
<path fill="#669ea0" opacity="1.00" d=" M 15.49 2.71 C 18.45 5.11 21.20 7.89 23.56 10.88 C 21.98 14.52 18.12 16.78 15.55 19.81 C 10.82 19.18 4.37 21.84 1.44 16.68 C 5.28 16.68 9.12 16.84 12.95 16.71 C 14.47 16.84 15.78 15.44 15.60 13.94 C 15.66 10.20 15.55 6.45 15.49 2.71 Z" />
<path fill="#669ea0" opacity="1.00" d=" M 1.05 21.12 C 8.66 21.12 16.26 20.98 23.86 21.13 C 23.85 21.52 23.82 22.31 23.80 22.70 C 16.25 22.75 8.71 22.73 1.16 22.72 C 1.14 22.32 1.08 21.52 1.05 21.12 Z" />
</g>
</svg>
