<?xml version="1.0" encoding="UTF-8" ?>
<!DOCTYPE svg PUBLIC "-//W3C//DTD SVG 1.1//EN" "http://www.w3.org/Graphics/SVG/1.1/DTD/svg11.dtd">
<svg width="340pt" height="340pt" viewBox="0 0 340 340" version="1.1" xmlns="http://www.w3.org/2000/svg">
<g id="#d3d5d8ff">
<path fill="#d3d5d8" opacity="1.00" d=" M 62.07 29.98 C 62.25 26.50 65.48 23.64 68.94 23.76 C 111.65 23.75 154.37 23.74 197.09 23.76 C 201.05 23.54 204.44 27.12 204.31 31.02 C 204.91 55.76 204.29 80.64 200.11 105.09 C 198.11 115.14 193.72 124.58 188.02 133.06 C 177.01 149.98 162.10 163.87 146.60 176.62 C 143.23 179.24 140.70 183.43 141.50 187.83 C 144.03 203.36 147.37 218.79 152.14 233.80 C 153.18 236.88 153.83 240.43 156.51 242.58 C 158.52 244.41 161.33 244.92 163.97 244.84 C 174.16 244.78 184.34 244.91 194.53 244.76 C 194.94 246.10 195.80 247.51 195.26 248.95 C 189.53 263.42 184.42 278.14 178.86 292.68 C 142.90 292.71 106.94 292.70 70.98 292.68 C 68.39 292.85 65.53 292.15 64.02 289.86 C 62.41 287.20 62.85 283.96 62.96 281.00 C 62.77 274.34 62.78 267.66 62.95 261.00 C 62.93 257.37 62.52 253.70 63.10 250.11 C 63.63 246.93 66.75 244.81 69.86 244.84 C 80.93 244.74 92.00 244.74 103.07 244.83 C 107.74 244.99 111.96 241.37 113.12 236.95 C 118.21 220.97 122.06 204.58 124.66 188.01 C 125.37 183.81 123.29 179.63 120.04 177.05 C 105.97 165.91 93.01 153.25 82.23 138.87 C 74.63 128.61 68.14 117.08 66.01 104.34 C 61.91 79.81 61.14 54.79 62.07 29.98 M 96.99 253.06 C 95.87 257.63 96.43 262.37 96.29 267.02 C 96.18 269.69 96.44 272.36 97.03 274.96 C 98.93 275.61 100.92 275.99 102.94 275.88 C 123.93 275.79 144.92 275.96 165.91 275.80 C 167.81 275.96 169.11 274.49 170.05 273.05 C 169.97 266.95 169.96 260.84 170.06 254.74 C 168.95 253.65 167.96 251.85 166.15 252.19 C 144.41 252.21 122.66 252.21 100.92 252.19 C 99.54 252.08 98.25 252.58 96.99 253.06 Z" />
<path fill="#d3d5d8" opacity="1.00" d=" M 32.03 49.94 C 37.78 45.89 45.37 45.22 52.03 47.07 C 53.85 47.73 56.18 48.19 57.06 50.15 C 57.51 53.10 57.54 56.13 57.24 59.10 C 54.53 61.05 51.06 59.23 48.06 60.21 C 43.54 60.71 40.67 64.96 40.06 69.16 C 37.59 79.42 38.62 90.47 42.90 100.11 C 46.44 107.17 54.66 110.43 62.24 109.61 C 63.77 113.38 64.86 117.29 65.90 121.21 C 51.73 129.70 32.37 121.72 25.01 107.77 C 19.19 96.53 17.58 83.21 19.81 70.80 C 21.41 62.81 25.00 54.57 32.03 49.94 Z" />
<path fill="#d3d5d8" opacity="1.00" d=" M 209.71 48.86 C 217.45 44.87 227.50 45.04 234.64 50.26 C 241.08 54.67 244.45 62.24 246.12 69.63 C 248.37 80.51 247.59 92.07 243.70 102.48 C 239.94 112.12 232.21 120.73 221.96 123.41 C 214.86 125.23 206.69 125.44 200.36 121.23 C 201.23 117.34 202.12 113.38 203.96 109.81 C 206.54 109.23 209.26 110.03 211.82 109.20 C 217.74 107.41 222.99 102.78 224.76 96.75 C 227.88 86.84 228.67 75.80 225.17 65.89 C 223.41 61.01 217.74 59.23 213.01 60.00 C 211.54 60.32 210.16 59.64 208.81 59.17 C 208.80 55.72 208.37 52.14 209.71 48.86 Z" />
<path fill="#d3d5d8" opacity="1.00" d=" M 227.25 146.77 C 231.94 141.55 236.74 136.43 241.24 131.06 C 247.21 135.76 251.29 142.48 256.93 147.54 C 264.08 145.99 270.71 142.26 277.76 140.15 C 279.73 147.06 280.33 154.25 281.95 161.24 C 288.81 163.31 295.73 165.23 302.69 166.96 C 300.79 173.87 297.89 180.44 295.36 187.13 C 299.81 192.22 304.73 196.90 309.09 202.07 C 304.93 205.98 300.24 209.25 295.81 212.83 C 294.81 213.56 293.80 214.66 294.14 216.02 C 295.39 221.77 297.58 227.31 298.42 233.16 C 291.86 234.38 285.32 235.69 278.78 237.00 C 277.30 238.19 277.40 240.35 276.80 242.01 C 277.49 246.50 279.92 250.39 281.59 254.54 C 288.65 271.91 296.22 289.08 303.47 306.37 C 293.89 307.02 284.31 305.32 274.74 305.75 C 269.59 309.40 265.63 314.53 260.79 318.58 C 259.36 319.79 257.41 319.35 255.70 319.49 C 251.48 306.33 247.62 293.05 243.53 279.85 C 242.41 276.50 241.75 272.97 240.14 269.80 C 235.13 286.22 231.09 302.93 226.21 319.39 C 224.53 319.34 222.65 319.84 221.23 318.68 C 215.49 314.22 211.06 308.04 204.93 304.13 C 196.31 306.01 187.80 308.47 179.25 310.65 C 182.81 298.50 187.73 286.81 191.76 274.81 C 195.40 264.54 198.88 254.20 202.62 243.97 C 202.53 241.13 202.10 237.93 200.31 235.63 C 194.17 233.56 187.72 232.46 181.41 231.03 C 182.51 224.80 184.50 218.75 186.43 212.73 C 185.27 210.00 182.55 208.54 180.48 206.57 C 177.28 203.98 174.38 200.96 170.78 198.90 C 175.88 193.54 181.85 188.95 186.44 183.14 C 183.93 177.41 182.12 171.40 179.53 165.71 C 186.50 162.96 193.97 161.86 201.00 159.31 C 202.78 152.35 203.97 145.26 205.80 138.32 C 212.94 141.17 220.17 143.78 227.25 146.77 M 228.63 158.89 C 215.27 162.80 204.68 174.44 201.57 187.95 C 197.99 202.85 203.90 219.51 216.19 228.71 C 226.05 236.28 239.55 238.60 251.44 235.13 C 260.05 232.69 267.81 227.19 272.84 219.78 C 281.00 208.10 282.21 191.93 275.81 179.20 C 272.15 171.92 266.30 165.74 259.09 161.93 C 249.88 156.91 238.65 156.06 228.63 158.89 M 207.83 255.61 C 204.52 256.95 204.28 260.99 202.89 263.83 C 198.71 275.63 193.61 287.14 190.17 299.18 C 196.02 297.84 201.56 295.51 207.20 293.52 C 212.79 298.25 216.74 304.85 223.01 308.75 C 226.81 294.44 230.32 280.05 234.71 265.90 C 235.12 264.15 236.28 261.95 234.60 260.50 C 231.08 256.91 227.73 253.13 224.07 249.67 C 223.53 249.62 222.46 249.51 221.92 249.46 C 217.14 251.30 212.49 253.50 207.83 255.61 M 253.85 251.56 C 251.29 254.12 248.89 256.84 246.31 259.39 C 244.73 260.64 245.25 262.78 245.82 264.41 C 250.65 279.65 254.49 295.20 259.72 310.31 C 264.67 306.98 268.39 302.16 272.91 298.30 C 280.00 298.18 286.93 300.26 294.03 299.84 C 288.87 286.47 282.32 273.66 276.72 260.47 C 275.90 259.01 275.58 256.93 273.84 256.28 C 269.02 254.50 264.01 253.26 259.17 251.53 C 257.47 251.04 255.26 249.92 253.85 251.56 Z" />
<path fill="#d3d5d8" opacity="1.00" d=" M 237.37 165.46 C 251.62 163.95 266.13 173.37 270.31 187.12 C 273.17 196.41 271.84 207.08 266.13 215.04 C 260.40 223.52 250.19 228.64 240.00 228.50 C 231.05 228.44 222.17 224.46 216.35 217.62 C 207.12 207.40 206.14 191.04 213.73 179.62 C 218.94 171.65 227.85 166.21 237.37 165.46 Z" />
</g>
</svg>
