<?xml version="1.0" encoding="UTF-8" ?>
<!DOCTYPE svg PUBLIC "-//W3C//DTD SVG 1.1//EN" "http://www.w3.org/Graphics/SVG/1.1/DTD/svg11.dtd">
<svg width="200pt" height="200pt" viewBox="0 0 200 200" version="1.1" xmlns="http://www.w3.org/2000/svg">
<g id="#022223ff">
<path fill="#022223" opacity="1.00" d=" M 111.40 0.00 L 112.90 0.00 C 126.75 3.03 140.60 6.11 154.46 9.11 C 157.16 4.19 162.10 0.69 167.70 0.00 L 171.38 0.00 C 179.27 0.94 186.09 7.95 186.14 16.01 C 186.80 25.30 178.30 33.90 169.00 33.36 C 160.22 33.45 152.64 25.50 152.71 16.79 C 140.35 13.85 127.91 11.28 115.52 8.49 C 111.64 26.04 107.75 43.59 103.92 61.16 C 124.34 61.71 144.86 67.29 161.76 78.97 C 166.26 74.40 172.62 71.74 179.06 72.25 C 189.86 72.52 199.22 81.91 200.00 92.59 L 200.00 96.39 C 199.27 103.95 194.61 110.80 187.91 114.34 C 191.11 127.63 187.99 142.04 180.14 153.15 C 169.03 169.32 151.00 179.36 132.44 184.60 C 111.27 190.26 88.52 190.32 67.40 184.37 C 49.00 179.07 31.15 168.96 20.20 152.84 C 12.53 141.85 9.51 127.68 12.58 114.58 C 5.75 111.06 0.88 104.19 0.00 96.53 L 0.00 92.67 C 0.71 81.96 10.13 72.51 20.95 72.25 C 27.50 71.73 33.89 74.56 38.45 79.18 C 55.22 67.52 75.56 61.81 95.85 61.16 C 100.12 42.14 104.34 23.10 108.58 4.08 C 108.80 2.31 109.94 0.94 111.40 0.00 M 60.24 100.26 C 52.86 101.57 46.78 108.44 46.67 115.99 C 46.01 124.99 53.95 133.53 63.01 133.36 C 72.29 133.83 80.70 125.20 80.00 115.93 C 79.95 106.12 69.80 98.16 60.24 100.26 M 132.38 100.52 C 126.19 102.14 121.06 107.61 120.17 113.99 C 118.34 123.50 126.37 133.30 136.04 133.35 C 145.42 134.07 154.00 125.38 153.33 116.03 C 153.29 105.76 142.25 97.54 132.38 100.52 M 64.42 149.56 C 61.94 150.25 60.86 153.59 62.44 155.62 C 64.67 158.16 67.58 160.03 70.60 161.53 C 84.06 167.97 99.55 168.78 114.11 166.50 C 122.51 164.54 131.54 162.12 137.60 155.57 C 140.21 152.15 135.41 147.49 132.04 150.01 C 124.83 156.72 114.70 158.53 105.24 159.38 C 94.59 159.98 83.44 158.93 73.75 154.18 C 70.50 152.91 68.34 148.48 64.42 149.56 Z" />
</g>
</svg>
